<svg width="212" height="64" viewBox="0 0 212 64" fill="none" xmlns="http://www.w3.org/2000/svg">
<path fill-rule="evenodd" clip-rule="evenodd" d="M94.1016 40.901V21.7915H85.0004V19.2771H105.791V21.7915H96.69V40.901H94.1016ZM65.8795 40.901V19.2771H67.2989L81.243 35.4531V19.2771H83.9149V40.901H82.579L68.5514 24.725V40.901H65.8795ZM44.0866 19.2771H60.9531V21.7915H46.7586V28.1614H55.3588V30.6758H46.7586V38.4704H61.8716V40.9848H44.0866V19.2771ZM30.7271 40.901H29.0571L18.6199 19.2771H21.5423L29.8086 36.6265L38.1583 19.2771H41.0807L30.7271 40.901ZM0.33399 19.2771H17.284V21.7915H3.00591V28.1614H11.6896V30.6758H3.00591V38.4704H18.1189V40.9848H0.33399V19.2771Z" fill="white" style="fill:white;fill-opacity:1;"/>
<path fill-rule="evenodd" clip-rule="evenodd" d="M82.6625 51.2939L80.4915 55.317V57.5799H79.4061V55.317L77.3186 51.2939H78.5711L79.8236 53.9759C79.8236 53.9759 79.9071 54.1436 79.9905 54.3112C79.9905 54.2274 80.074 54.0597 80.1575 53.9759L81.4935 51.2939H82.6625ZM74.3127 57.2447C73.8117 57.4961 73.2273 57.5799 72.4758 57.5799C71.5573 57.5799 70.8058 57.3285 70.2213 56.7418C69.6369 56.1551 69.3864 55.4008 69.3864 54.4788C69.3864 53.4731 69.7204 52.6349 70.3883 52.0482C71.0563 51.4615 71.8078 51.1263 72.8098 51.1263C73.4777 51.1263 73.9787 51.2101 74.3962 51.3777V52.3835C73.9787 52.132 73.4778 52.0482 72.9768 52.0482C72.3088 52.0482 71.7243 52.2997 71.2233 52.7187C70.8058 53.1378 70.5553 53.7245 70.5553 54.4788C70.5553 55.1493 70.7223 55.736 71.1398 56.1551C71.5573 56.5742 72.0583 56.7418 72.7263 56.7418C73.3108 56.7418 73.8952 56.5742 74.3127 56.3227V57.2447ZM65.5455 57.5799H64.3765L61.2871 52.9702C61.2036 52.8864 61.1201 52.7187 61.1201 52.6349C61.1201 52.8025 61.1201 53.054 61.1201 53.4731V57.5799H60.0347V51.2939H61.2871L64.293 55.8198C64.46 55.9875 64.46 56.1551 64.5435 56.2389C64.5435 56.0713 64.46 55.8198 64.46 55.4008V51.3777H65.462V57.5799H65.5455ZM56.2773 57.5799H52.6034V51.2939H56.1103V52.2159H53.6889V53.9759H55.9433V54.8141H53.6889V56.658H56.2773V57.5799ZM48.5955 57.077C47.9275 57.4123 47.1761 57.5799 46.3411 57.5799C45.3391 57.5799 44.5876 57.3285 44.0032 56.7418C43.4187 56.1551 43.0847 55.4008 43.0847 54.4788C43.0847 53.4731 43.4187 52.7187 44.0866 52.132C44.7546 51.5453 45.5896 51.2101 46.5916 51.2101C47.343 51.2101 47.9275 51.2939 48.4285 51.5453V52.6349C47.9275 52.2997 47.3431 52.132 46.6751 52.132C46.0071 52.132 45.4226 52.3835 44.9216 52.8025C44.5041 53.2216 44.2536 53.8083 44.2536 54.4788C44.2536 55.2331 44.4206 55.736 44.8381 56.1551C45.2556 56.5742 45.7566 56.7418 46.4246 56.7418C46.8421 56.7418 47.2596 56.658 47.5935 56.4903V54.9817H46.2576V54.1436H48.679V57.077H48.5955ZM38.0748 55.0655L37.1564 52.5511C37.1564 52.4673 37.0729 52.3835 37.0729 52.132C37.0729 52.2997 36.9894 52.4673 36.9894 52.5511L36.0709 55.0655H38.0748ZM40.1623 57.5799H38.9933L38.4088 55.9875H35.8204L35.2359 57.5799H34.067L36.4884 51.2939H37.7408L40.1623 57.5799ZM24.7987 57.5799V51.2939H28.3891V52.2159H25.9677V53.9759H28.2221V54.8141H25.9677V56.658H28.5561V57.5799H24.7987ZM21.0414 57.2447C20.5404 57.4961 19.9559 57.5799 19.2044 57.5799C18.2859 57.5799 17.5345 57.3285 16.95 56.7418C16.3655 56.1551 16.115 55.4008 16.115 54.4788C16.115 53.4731 16.449 52.6349 17.117 52.0482C17.785 51.4615 18.5364 51.1263 19.5384 51.1263C20.2064 51.1263 20.7074 51.2101 21.1249 51.3777V52.3835C20.7074 52.132 20.2064 52.0482 19.7054 52.0482C19.0374 52.0482 18.4529 52.2997 17.952 52.7187C17.5345 53.1378 17.284 53.7245 17.284 54.4788C17.284 55.1493 17.451 55.736 17.8685 56.1551C18.2859 56.5742 18.7869 56.7418 19.4549 56.7418C20.0394 56.7418 20.6239 56.5742 21.0414 56.3227V57.2447ZM12.2741 57.5799H11.1887V51.2939H12.2741V57.5799ZM7.01378 57.5799H5.92832V53.5569C5.92832 53.2216 5.92832 52.8025 6.01182 52.2997C5.92832 52.5511 5.84482 52.7187 5.84482 52.8864L3.92438 57.5799H3.08941L1.16896 52.9702C1.08547 52.8025 1.08547 52.6349 1.00197 52.3835C1.00197 52.6349 1.00197 53.054 1.00197 53.6407V57.6637H0V51.3777H1.50295L3.2564 55.5684C3.3399 55.736 3.42339 55.9875 3.50689 56.1551C3.59039 55.8198 3.67389 55.5684 3.75738 55.4008L5.51083 51.2939H7.01378V57.5799Z" fill="white" style="fill:white;fill-opacity:1;"/>
<path fill-rule="evenodd" clip-rule="evenodd" d="M158.311 42.6611C159.814 40.8172 165.158 33.3578 166.577 29.8376C168.498 25.3117 170.919 16.6789 166.41 12.9911C161.067 8.6328 156.641 17.098 155.472 21.5401C153.635 28.4128 153.719 34.4474 154.554 41.4877C151.715 45.5946 145.536 50.9587 141.027 53.8921C133.679 58.7533 127.083 54.8141 125.914 47.6061C129.421 42.5773 132.343 38.6381 134.765 32.8549C136.769 28.2452 140.276 16.3436 135.85 12.572C124.996 9.38712 121.656 30.0053 121.071 37.2132C120.737 41.6553 120.904 44.0859 120.821 46.0975C119.986 47.6061 119.067 49.1147 115.727 52.0482C112.388 54.9817 107.378 59.0886 102.368 58.4181C95.3541 54.5626 100.781 44.5888 95.3541 45.9298C90.2607 47.187 94.7696 76.857 116.813 57.4123C118.232 56.1551 120.821 53.3892 122.157 52.2997C123.827 55.9036 124.578 58.7533 128.586 60.5134C132.51 62.2735 137.103 60.8486 140.61 58.7533C148.041 54.4788 150.379 50.9586 156.224 45.0917C158.729 47.187 161.818 48.5281 167.412 47.4385C184.863 43.8345 211.666 17.3494 212 0C209.829 4.02305 209.829 9.13568 203.817 16.8465C200.728 20.8696 195.468 27.0718 191.71 30.0053C185.197 35.0341 166.41 49.7014 158.311 42.6611ZM157.643 38.0514C156.808 32.8549 157.56 15.2541 164.239 15.5893C169.082 19.78 161.067 33.6092 157.643 38.0514ZM125.33 40.901C124.578 34.4474 128.169 16.9303 133.178 17.098C135.349 18.5228 129.839 36.7103 125.33 40.901Z" fill="#69C311" style="fill:#69C311;fill:color(display-p3 0.4118 0.7647 0.0667);fill-opacity:1;"/>
</svg>
